# xmcd
#
# Track frame offsets:
#	150
#	18852
#	36567
#	53113
#	66534
#	76137
#	90839
#	105787
#	120097
#	136319
#	151429
#	167293
#	178163
#	200269
#	211884
#	226690
#	242382
#	256171
#
# Disc length: 3707 seconds
# Revision: 2
# Processed by: cddbd v1.5.2PL0 Copyright (c) Steve Scherf et al.
# Submitted via: dBpowerAMP V12.0
#
DISCID=cf0e7912
DTITLE=Various Artist - CDX, Vol. 196B: September 1998
DYEAR=1998
DGENRE=Country
TTITLE0=Faith Hill - Let Me Let Go
TTITLE1=Patty Loveless - Like Water Into Wine
TTITLE2=Sara Evans - No Place That Far
TTITLE3=Sammy Kershaw - One Day Left To Live
TTITLE4=Hank Williams - Rockin' Chair Money
TTITLE5=Mark Nesler - Slow Down
TTITLE6=David Kersh - Something To Think About
TTITLE7=Randy Travis - Spirit Of A Boy, Wisdom Of A Man
TTITLE8=Lari White - Take Me
TTITLE9=Gil Grand - Thanks For The G Chord
TTITLE10=Jenny Simpson - Ticket Out Of Kansas
TTITLE11=Diamond Rio - Unbelieveable
TTITLE12=Gene MIller - Virginia
TTITLE13=George Strait - We Really Shouldn't Be Doing This
TTITLE14=Clint Daniels - When I Grow Up
TTITLE15=Mark Chesnutt - Wherever You Are
TTITLE16=Jerry Adams - Mary's Go Round
TTITLE17=Willie P. Richardson - Elevator Lawyer
EXTD=
EXTT0=
EXTT1=
EXTT2=
EXTT3=
EXTT4=
EXTT5=
EXTT6=
EXTT7=
EXTT8=
EXTT9=
EXTT10=
EXTT11=
EXTT12=
EXTT13=
EXTT14=
EXTT15=
EXTT16=
EXTT17=
PLAYORDER=
